<svg width="42" height="59" viewBox="0 0 42 59" fill="none" xmlns="http://www.w3.org/2000/svg">
<path d="M17.946 36.8553C18.786 31.4666 15.8078 28.202 12.2188 26.904V40.828C12.2188 40.828 17.946 37.0126 17.946 36.8553Z" fill="#EA4C89"/>
<path d="M30.5081 44.0926C30.4317 47.554 28.5226 54.634 24.819 58.3313C31.9972 54.9486 36.9608 48.144 38.8699 43.8566C39.9008 41.5753 41.2372 37.642 41.4281 35.046C42.3444 20.768 36.8463 16.402 28.1026 10.4233C24.2844 7.74864 12.219 0.707977 12.219 0.707977L0.458984 8.02398C0.458984 8.02398 10.119 14.1206 13.5553 16.0086C26.8426 23.1673 30.7372 32.5286 30.5081 44.0926Z" fill="#EA4C89"/>
</svg>
