<svg width="19" height="19" viewBox="0 0 19 19" fill="none" xmlns="http://www.w3.org/2000/svg">
<path id="Dribbble_icon" fill-rule="evenodd" clip-rule="evenodd" d="M9.19531 18.5C4.24418 18.5 0.195312 14.4511 0.195312 9.50001C0.195312 4.54888 4.24418 0.500015 9.19531 0.500015C14.1464 0.500015 18.1953 4.54888 18.1953 9.50001C18.1953 14.4511 14.1464 18.5 9.19531 18.5ZM1.25 9.50001C1.25 11.7738 2.2189 13.833 3.76408 15.2851C4.08034 14.5011 4.62016 13.7405 5.29956 13.0449C6.21175 12.1109 7.406 11.2619 8.74914 10.5943C9.25333 10.3436 9.78157 10.1171 10.3269 9.92081C10.0511 9.17284 9.74018 8.44584 9.39657 7.74242C6.87101 8.57709 3.9171 9.09037 1.28014 8.80771C1.26019 9.03594 1.25 9.26685 1.25 9.50001ZM10.3965 7.3871C10.7417 8.10269 11.0544 8.84095 11.3324 9.59935C13.2103 9.07382 15.2317 8.92375 17.1396 9.37273C17.1097 7.49685 16.4207 5.77309 15.2953 4.4243C14.9014 4.9032 14.3204 5.36675 13.6521 5.79363C12.7624 6.36192 11.6422 6.91246 10.3965 7.3871ZM10.6698 10.9181C10.1712 11.0983 9.68537 11.3067 9.2186 11.5387C7.96627 12.1612 6.87252 12.9438 6.0541 13.7818C5.33016 14.523 4.84468 15.2835 4.63173 15.9935C5.92543 16.9072 7.50079 17.4453 9.19531 17.4453C10.1029 17.4453 10.9762 17.291 11.7905 17.0072C11.6687 14.8807 11.2827 12.8372 10.6698 10.9181ZM12.8188 16.5648C12.6695 14.4876 12.2778 12.4867 11.6749 10.5986C13.4577 10.1086 15.3468 9.99452 17.0842 10.4455C16.7645 13.1092 15.1121 15.3795 12.8188 16.5648ZM9.91457 6.44175C9.02951 4.79635 7.96787 3.28438 6.75864 1.93946C7.52733 1.68977 8.34637 1.5547 9.19531 1.5547C11.2578 1.5547 13.1437 2.35188 14.5601 3.65323C14.2993 4.00747 13.8108 4.44077 13.0843 4.9048C12.242 5.44289 11.1501 5.97828 9.91457 6.44175ZM5.71604 2.36253C6.93848 3.67339 8.01248 5.16234 8.90537 6.79333C6.5261 7.56056 3.81838 8.00877 1.44242 7.76427C1.97672 5.39184 3.58098 3.41154 5.71604 2.36253Z" fill="#DE0F66"/>
</svg>
