<svg width="17" height="16" viewBox="0 0 17 16" fill="none" xmlns="http://www.w3.org/2000/svg">
<path d="M11.1979 5.33337C12.2587 5.33337 13.2762 5.7548 14.0263 6.50495C14.7764 7.25509 15.1979 8.27251 15.1979 9.33337V14H12.5312V9.33337C12.5312 8.97975 12.3907 8.64061 12.1407 8.39057C11.8906 8.14052 11.5515 8.00004 11.1979 8.00004C10.8443 8.00004 10.5051 8.14052 10.2551 8.39057C10.005 8.64061 9.86454 8.97975 9.86454 9.33337V14H7.19788V9.33337C7.19788 8.27251 7.6193 7.25509 8.36945 6.50495C9.11959 5.7548 10.137 5.33337 11.1979 5.33337Z" stroke="#717182" stroke-width="1.33333" stroke-linecap="round" stroke-linejoin="round"/>
<path d="M4.53129 6H1.86462V14H4.53129V6Z" stroke="#717182" stroke-width="1.33333" stroke-linecap="round" stroke-linejoin="round"/>
<path d="M3.19796 4.00004C3.93434 4.00004 4.53129 3.40309 4.53129 2.66671C4.53129 1.93033 3.93434 1.33337 3.19796 1.33337C2.46158 1.33337 1.86462 1.93033 1.86462 2.66671C1.86462 3.40309 2.46158 4.00004 3.19796 4.00004Z" stroke="#717182" stroke-width="1.33333" stroke-linecap="round" stroke-linejoin="round"/>
</svg>
