<svg width="15" height="15" viewBox="0 0 15 15" fill="none" xmlns="http://www.w3.org/2000/svg">
<path id="Linkedin_icon" d="M1.17577 14.0794H3.33086V5.54207H1.17577V14.0794ZM7.90452 9.5804C7.90452 8.2337 8.53904 7.15406 10.0005 7.15406C11.4434 7.15406 11.9106 8.31734 11.9106 9.5804V14.0806H14.0525V8.58023C14.0525 6.62649 13.1061 5.26007 11.0425 5.26007C10.1056 5.26007 9.02359 5.75119 8.56593 6.60379L7.90452 7.81009V5.54207H5.86534V14.0794H7.90452V9.5804ZM8.61014 9.5804V14.785H5.15973V4.83646H8.61014V5.47157C9.29126 4.86155 10.1277 4.55445 11.0425 4.55445C13.4957 4.55445 14.7581 6.23574 14.7581 8.58023V14.7832L11.205 14.7838V9.5804C11.205 8.73199 11.018 7.85967 10.0005 7.85967C8.93935 7.85967 8.61014 8.63161 8.61014 9.5804ZM2.23987 3.62657C2.98671 3.62657 3.57881 3.01595 3.57881 2.27329C3.57881 1.53004 2.98671 0.920613 2.23987 0.920613C1.49303 0.920613 0.900929 1.53004 0.900929 2.27329C0.900929 3.01595 1.49243 3.62657 2.23987 3.62657ZM2.23987 4.33219C1.10646 4.33219 0.195312 3.40252 0.195312 2.27329C0.195312 1.14407 1.10646 0.214996 2.23987 0.214996C3.37268 0.214996 4.28443 1.14407 4.28443 2.27329C4.28443 3.40192 3.37268 4.33219 2.23987 4.33219ZM0.47015 14.785V4.83646H4.03647V14.785H0.47015Z" fill="#DE0F66"/>
</svg>
