<svg width="17" height="16" viewBox="0 0 17 16" fill="none" xmlns="http://www.w3.org/2000/svg">
<path d="M13.5599 6.66671C13.5599 9.99537 9.86719 13.462 8.62719 14.5327C8.51167 14.6196 8.37105 14.6665 8.22652 14.6665C8.08199 14.6665 7.94137 14.6196 7.82586 14.5327C6.58586 13.462 2.89319 9.99537 2.89319 6.66671C2.89319 5.25222 3.45509 3.89567 4.45529 2.89547C5.45548 1.89528 6.81203 1.33337 8.22652 1.33337C9.64101 1.33337 10.9976 1.89528 11.9978 2.89547C12.998 3.89567 13.5599 5.25222 13.5599 6.66671Z" stroke="#717182" stroke-width="1.33333" stroke-linecap="round" stroke-linejoin="round"/>
<path d="M8.22656 8.66663C9.33113 8.66663 10.2266 7.7712 10.2266 6.66663C10.2266 5.56206 9.33113 4.66663 8.22656 4.66663C7.12199 4.66663 6.22656 5.56206 6.22656 6.66663C6.22656 7.7712 7.12199 8.66663 8.22656 8.66663Z" stroke="#717182" stroke-width="1.33333" stroke-linecap="round" stroke-linejoin="round"/>
</svg>
