<svg width="17" height="16" viewBox="0 0 17 16" fill="none" xmlns="http://www.w3.org/2000/svg">
<g clip-path="url(#clip0_2019_2196)">
<path d="M9.28387 11.0454C9.42156 11.1086 9.57667 11.1231 9.72367 11.0863C9.87066 11.0496 10.0008 10.9639 10.0925 10.8434L10.3292 10.5334C10.4534 10.3678 10.6144 10.2334 10.7996 10.1408C10.9847 10.0482 11.1889 10 11.3959 10H13.3959C13.7495 10 14.0886 10.1405 14.3387 10.3906C14.5887 10.6406 14.7292 10.9798 14.7292 11.3334V13.3334C14.7292 13.687 14.5887 14.0261 14.3387 14.2762C14.0886 14.5262 13.7495 14.6667 13.3959 14.6667C10.2133 14.6667 7.16103 13.4024 4.91059 11.152C2.66016 8.90155 1.39587 5.8493 1.39587 2.66671C1.39587 2.31309 1.53635 1.97395 1.7864 1.7239C2.03645 1.47385 2.37559 1.33337 2.72921 1.33337H4.72921C5.08283 1.33337 5.42197 1.47385 5.67202 1.7239C5.92206 1.97395 6.06254 2.31309 6.06254 2.66671V4.66671C6.06254 4.8737 6.01435 5.07785 5.92178 5.26299C5.82921 5.44813 5.6948 5.60918 5.52921 5.73337L5.21721 5.96737C5.09482 6.06083 5.00855 6.19376 4.97307 6.34361C4.93758 6.49345 4.95506 6.65096 5.02254 6.78937C5.93366 8.63995 7.43216 10.1366 9.28387 11.0454Z" stroke="#717182" stroke-width="1.33333" stroke-linecap="round" stroke-linejoin="round"/>
</g>
<defs>
<clipPath id="clip0_2019_2196">
<rect width="16" height="16" fill="white" transform="translate(0.0625)"/>
</clipPath>
</defs>
</svg>
