<svg width="17" height="16" viewBox="0 0 17 16" fill="none" xmlns="http://www.w3.org/2000/svg">
<g clip-path="url(#clip0_2019_2220)">
<path d="M8.93754 14.6667C12.6194 14.6667 15.6042 11.6819 15.6042 8.00004C15.6042 4.31814 12.6194 1.33337 8.93754 1.33337C5.25564 1.33337 2.27087 4.31814 2.27087 8.00004C2.27087 11.6819 5.25564 14.6667 8.93754 14.6667Z" stroke="#717182" stroke-width="1.33333" stroke-linecap="round" stroke-linejoin="round"/>
<path d="M8.93754 1.33337C7.2257 3.13081 6.27087 5.51787 6.27087 8.00004C6.27087 10.4822 7.2257 12.8693 8.93754 14.6667C10.6494 12.8693 11.6042 10.4822 11.6042 8.00004C11.6042 5.51787 10.6494 3.13081 8.93754 1.33337Z" stroke="#717182" stroke-width="1.33333" stroke-linecap="round" stroke-linejoin="round"/>
<path d="M2.27087 8H15.6042" stroke="#717182" stroke-width="1.33333" stroke-linecap="round" stroke-linejoin="round"/>
</g>
<defs>
<clipPath id="clip0_2019_2220">
<rect width="16" height="16" fill="white" transform="translate(0.9375)"/>
</clipPath>
</defs>
</svg>
