<svg width="14" height="17" viewBox="0 0 14 17" fill="none" xmlns="http://www.w3.org/2000/svg">
<g id="Resume_icon">
<path id="Vector" d="M8.73899 0.181675L8.73515 0.17772C8.66276 0.103173 8.56305 0.0614649 8.45914 0.0626634C8.44499 0.0620642 8.43073 0.0632627 8.41707 0.0666185H2.23602C1.13507 0.0669781 0.242787 0.959385 0.242188 2.06045V14.9437C0.242787 16.0446 1.13507 16.9369 2.23602 16.9375H11.2006C12.3017 16.9369 13.1941 16.0446 13.1944 14.9437V4.78657C13.1937 4.68494 13.1539 4.5875 13.0833 4.51439L8.73899 0.181675ZM8.84254 1.3664L11.8947 4.41072H10.0694C9.39265 4.4088 8.84446 3.86061 8.84254 3.18381V1.3664ZM11.2006 16.1629H2.23602C1.5591 16.161 1.01115 15.6128 1.00899 14.9359V2.05266C1.01115 1.37598 1.5591 0.827789 2.23602 0.825632H8.07561V3.18381C8.07621 4.28476 8.96862 5.17716 10.0694 5.17764H12.4276V14.9359C12.427 15.6134 11.8781 16.1623 11.2006 16.1629Z" fill="#DE0F66"/>
<path id="Vector_2" d="M2.98704 10.7412H7.76464C7.97629 10.7412 8.14804 10.5696 8.14804 10.3578C8.14804 10.146 7.97629 9.97441 7.76464 9.97441H2.98704C2.77526 9.97441 2.60352 10.146 2.60352 10.3578C2.60352 10.5696 2.77526 10.7412 2.98704 10.7412Z" fill="#DE0F66"/>
<path id="Vector_3" d="M10.4486 12.877H2.98704C2.77526 12.877 2.60352 13.0486 2.60352 13.2604C2.60352 13.4721 2.77526 13.6438 2.98704 13.6438H10.4486C10.6602 13.6438 10.8321 13.4721 10.8321 13.2604C10.8321 13.0486 10.6602 12.877 10.4486 12.877Z" fill="#DE0F66"/>
<path id="Vector_4" d="M4.52045 5.55734C5.29756 5.55734 5.92761 4.92716 5.92761 4.15017C5.92761 3.37294 5.29756 2.74277 4.52045 2.74277C3.74322 2.74277 3.11328 3.37294 3.11328 4.15017C3.11364 4.92704 3.74334 5.55674 4.52045 5.55734ZM4.52045 3.51353C4.874 3.51353 5.16069 3.80021 5.16069 4.15389C5.16069 4.50745 4.874 4.79413 4.52045 4.79413C4.16677 4.79413 3.88008 4.50745 3.88008 4.15389C3.88068 3.80057 4.16713 3.51413 4.52045 3.51353Z" fill="#DE0F66"/>
<path id="Vector_5" d="M2.98704 8.42151C3.19845 8.42091 3.36984 8.24952 3.37044 8.03811V7.73129C3.37044 7.09596 3.88532 6.58097 4.52076 6.58097C5.15597 6.58097 5.67097 7.09596 5.67097 7.73129V8.03811C5.67097 8.24988 5.84271 8.42151 6.05449 8.42151C6.26627 8.42151 6.43789 8.24988 6.43789 8.03811V7.73129C6.43789 6.67253 5.57952 5.81416 4.52076 5.81416C3.462 5.81416 2.60352 6.67253 2.60352 7.73129V8.03811C2.60411 8.24952 2.7755 8.42091 2.98704 8.42151Z" fill="#DE0F66"/>
</g>
</svg>
